<?xml version="1.0" standalone="no"?><!DOCTYPE svg PUBLIC "-//W3C//DTD SVG 1.1//EN" "http://www.w3.org/Graphics/SVG/1.1/DTD/svg11.dtd"><svg t="1561034678521" class="icon" viewBox="0 0 1024 1024" version="1.1" xmlns="http://www.w3.org/2000/svg" p-id="3923" xmlns:xlink="http://www.w3.org/1999/xlink" width="128" height="128"><defs><style type="text/css"></style></defs><path d="M566.068941 777.924535L566.068941 777.924535c-14.174837 14.05204101-33.873482 22.269189-54.00498499 22.269189l0 0c-20.26248599 0-39.896662-8.216125-54.13596801-22.269189l-369.966123-370.09506 0 0c-29.865191-29.858028-29.865191-78.347392 0-108.204397l0 0c29.913287-29.79356 78.218456-29.79356 108.075461 0L512.063957 615.46342 827.836807 299.625078l0 0c29.984918-29.797653 78.285994-29.797653 108.204397 0.127913l0 0c29.863145 29.730115 29.863145 78.219479 0 108.076484L566.068941 777.924535 566.068941 777.924535zM566.068941 777.924535" p-id="3924" fill="#2c2c2c"></path></svg>